<svg width="665" height="554" viewBox="0 0 665 554" fill="none" xmlns="http://www.w3.org/2000/svg">
<path d="M454.766 138.05C481.651 170.785 507.285 221.093 492.79 232.998C478.295 244.903 429.16 213.896 402.275 181.161C356.537 142.519 365.347 112.24 379.842 100.335C394.337 88.4302 426.942 83.8368 454.766 138.05Z" fill="#3C2B2B"/>
<path d="M450.318 140.333L450.563 140.81L450.903 141.224C464.096 157.288 476.968 177.662 484.716 195.342C488.604 204.213 491.073 212.117 491.777 218.308C492.509 224.751 491.2 227.834 489.617 229.134C487.909 230.537 484.207 231.323 477.511 229.67C471.103 228.088 463.234 224.564 454.73 219.519C437.746 209.444 419.193 193.882 406.139 177.988L405.85 177.636L405.502 177.342C383.174 158.478 374.927 142.293 373.434 130.113C371.955 118.051 376.988 109.149 383.015 104.199C389.142 99.1674 399.202 95.5939 410.834 99.1768C422.519 102.776 436.754 113.905 450.318 140.333Z" stroke="#583A3A" stroke-width="10"/>
<path d="M549.246 112.77L405.453 258.38C398.834 265.082 387.748 264.097 382.415 256.332L341.02 196.058C335.729 188.354 338.695 177.74 347.213 173.895L533.955 89.6032C548.194 83.9784 560.036 101.843 549.246 112.77Z" fill="#2C2424" stroke="#583A3A" stroke-width="10"/>
<path d="M533 90C547.584 83.3959 560.337 102.093 548.867 113.261L415.859 242.757C407.741 250.661 394.685 250.249 387.081 241.851L352.16 203.281C343.133 193.311 346.322 177.451 358.501 171.746L533 90V90Z" fill="#3C2B2B"/>
<path d="M230.37 314.385C255.739 348.307 279.059 399.729 264.038 410.963C249.017 422.197 201.342 388.988 175.973 355.066C132.038 314.385 142.215 284.537 157.237 273.303C172.258 262.07 205.038 258.963 230.37 314.385Z" fill="#3C2B2B"/>
<path d="M225.822 316.463L226.045 316.95L226.365 317.379C238.815 334.027 250.747 354.964 257.684 372.979C261.164 382.017 263.272 390.026 263.694 396.242C264.133 402.711 262.684 405.732 261.044 406.959C259.274 408.282 255.54 408.899 248.927 406.944C242.597 405.072 234.896 401.194 226.63 395.768C210.122 384.931 192.295 368.542 179.977 352.071L179.704 351.706L179.37 351.397C157.922 331.537 150.42 314.995 149.482 302.759C148.552 290.643 153.985 281.978 160.231 277.307C166.58 272.559 176.792 269.447 188.249 273.555C199.758 277.681 213.473 289.446 225.822 316.463Z" stroke="#583A3A" stroke-width="10"/>
<path d="M427.113 271.259C497.65 376.867 537.665 472.91 506.535 496.273C475.404 519.636 389.171 457.301 313.928 357.043C232 261 177.87 136.363 209 113C323.187 285.172 280 51 427.113 271.259Z" fill="#3C2B2B"/>
<path d="M414.983 256.977C457.149 313.889 487.849 369.96 503.665 414.852C511.584 437.328 515.673 456.725 515.758 471.887C515.844 487.168 511.893 497.082 505.028 502.235C498.18 507.374 487.549 508.351 472.881 503.914C458.334 499.514 440.855 490.067 421.549 476.111C382.987 448.235 338.079 403.065 296.122 347.16C254.193 291.291 224.483 235.523 209.591 190.681C202.136 168.233 198.484 148.786 198.717 133.565C198.905 121.323 201.575 112.462 206.158 106.744C220.706 128.397 232.679 144.293 242.737 155.781C253.507 168.081 262.315 175.601 269.992 179.632C277.898 183.783 284.653 184.25 290.823 182.469C295.869 181.013 300.323 178.054 304.104 175.541C304.609 175.205 305.102 174.877 305.584 174.562C309.942 171.707 313.778 169.5 318.287 168.8C322.636 168.125 328.235 168.778 336.072 173.013C352.142 181.698 376.21 204.644 414.983 256.977Z" stroke="#583A3A" stroke-width="10"/>
<path d="M417.092 256.494C459.049 312.399 489.874 368.139 505.865 412.953C513.872 435.39 518.06 454.812 518.22 470.009C518.382 485.333 514.474 495.267 507.626 500.407C500.778 505.546 490.147 506.523 475.479 502.086C460.932 497.686 443.454 488.239 424.147 474.283C385.585 446.408 340.677 401.237 298.72 345.332C256.763 289.426 225.938 233.687 209.947 188.873C201.94 166.436 197.752 147.014 197.592 131.817C197.43 116.493 201.338 106.559 208.186 101.419C215.034 96.2799 225.665 95.3027 240.333 99.7394C254.88 104.139 272.359 113.587 291.665 127.543C330.227 155.418 375.135 200.588 417.092 256.494Z" stroke="#583A3A" stroke-width="10"/>
<path d="M103.241 420.78L238.351 260.188C244.399 253 255.49 253.076 261.439 260.347L307.863 317.094C313.766 324.309 311.727 335.104 303.6 339.67L120.419 442.567C106.691 449.455 93.3233 432.568 103.241 420.78Z" fill="#2C2424" stroke="#583A3A" stroke-width="10"/>
<path d="M114.987 444.863C102.085 444.936 95.1297 429.755 103.609 420.031L241.332 262.089C246.642 255.999 256.163 256.178 261.242 262.463L306.271 318.196C310.872 323.891 309.346 332.342 303.044 336.068L122.528 442.778C120.243 444.129 117.641 444.848 114.987 444.863V444.863Z" fill="#3C2B2B"/>
<circle cx="311.458" cy="233.141" r="22" transform="rotate(-1.6234 311.458 233.141)" stroke="#896262" stroke-width="10"/>
<circle cx="393.542" cy="340.859" r="22" transform="rotate(-1.6234 393.542 340.859)" stroke="#896262" stroke-width="10"/>
<circle cx="353.971" cy="285.958" r="22" transform="rotate(-1.6234 353.971 285.958)" stroke="#896262" stroke-width="10"/>
<path d="M612.221 414.732L501.103 476.751C497 479.041 491.857 478.166 488.742 474.649L433.829 412.629C428.115 406.176 432.697 396 441.316 396L607.347 396C617.656 396 621.222 409.708 612.221 414.732Z" fill="#2C2424" stroke="#583A3A" stroke-width="10"/>
<path d="M608.679 395.2C618.51 395.149 622.506 407.829 614.421 413.424L603.303 421.117L567.646 440.274L529.477 460.964L502.482 477.34C498.336 479.855 492.983 479.033 489.783 475.39L434.679 412.666C429.019 406.223 433.564 396.111 442.14 396.067L608.679 395.2Z" fill="#3C2B2B"/>
<path d="M177.36 299.993C173.243 304.48 168.495 307.441 164.247 308.684C159.947 309.942 156.609 309.349 154.621 307.526C152.634 305.702 151.757 302.428 152.64 298.035C153.513 293.697 156.055 288.711 160.171 284.224C164.288 279.737 169.037 276.776 173.284 275.533C177.584 274.275 180.922 274.868 182.91 276.691C184.898 278.515 185.774 281.789 184.891 286.182C184.018 290.52 181.477 295.506 177.36 299.993Z" fill="#2C2424" stroke="#816565" stroke-width="5"/>
<path d="M401.624 124.859C397.03 128.856 391.98 131.267 387.62 132.026C383.206 132.795 379.956 131.832 378.185 129.798C376.413 127.763 375.909 124.411 377.278 120.145C378.632 115.931 381.716 111.262 386.309 107.264C390.902 103.266 395.952 100.855 400.312 100.096C404.726 99.3276 407.977 100.29 409.748 102.324C411.519 104.359 412.023 107.711 410.654 111.977C409.301 116.191 406.217 120.861 401.624 124.859Z" fill="#2C2424" stroke="#816565" stroke-width="5"/>
<ellipse cx="168.365" cy="291.803" rx="2.53814" ry="8.36787" transform="rotate(46.6232 168.365 291.803)" fill="#A49393"/>
<ellipse cx="393.949" cy="115.365" rx="2.53814" ry="8.36787" transform="rotate(48.8987 393.949 115.365)" fill="#A49393"/>
<path d="M277.022 459.247C287.502 473.877 301.753 481.614 298.799 483.73C295.844 485.846 284.954 475.701 274.475 461.071C263.996 446.441 257.896 432.865 260.85 430.749C263.804 428.633 266.543 444.616 277.022 459.247Z" fill="#403636"/>
<path d="M311.328 435.16C321.929 449.703 324.799 465.664 327.736 463.523C330.674 461.381 324.462 447.856 313.861 433.314C303.261 418.771 292.286 408.718 289.348 410.859C286.411 413 300.728 420.617 311.328 435.16Z" fill="#403636"/>
<ellipse cx="301.817" cy="456.495" rx="2.19322" ry="37.2985" transform="rotate(-37.8089 301.817 456.495)" fill="#403636"/>
<path d="M509.082 278.877C521.094 292.278 536.103 298.416 533.397 300.841C530.691 303.266 518.761 294.369 506.749 280.968C494.737 267.567 487.194 254.738 489.9 252.312C492.605 249.887 497.07 265.476 509.082 278.877Z" fill="#403636"/>
<path d="M540.558 251.194C552.681 264.494 557.273 280.048 559.96 277.599C562.647 275.15 554.997 262.383 542.874 249.083C530.752 235.782 518.746 226.985 516.06 229.434C513.373 231.883 528.435 237.894 540.558 251.194Z" fill="#403636"/>
<ellipse cx="533.429" cy="273.439" rx="2.19322" ry="37.2985" transform="rotate(-44.0673 533.429 273.439)" fill="#403636"/>
</svg>
